<svg width="32" height="32" viewBox="0 0 32 32" fill="none" xmlns="http://www.w3.org/2000/svg">
<path d="M15.9998 30.3337C8.09317 30.3337 1.6665 23.907 1.6665 16.0003C1.6665 8.09366 8.09317 1.66699 15.9998 1.66699C23.9065 1.66699 30.3332 8.09366 30.3332 16.0003C30.3332 23.907 23.9065 30.3337 15.9998 30.3337ZM15.9998 3.66699C9.19984 3.66699 3.6665 9.20033 3.6665 16.0003C3.6665 22.8003 9.19984 28.3337 15.9998 28.3337C22.7998 28.3337 28.3332 22.8003 28.3332 16.0003C28.3332 9.20033 22.7998 3.66699 15.9998 3.66699Z" fill="white"/>
<path d="M16.0002 20.0129C15.7469 20.0129 15.4935 19.9196 15.2935 19.7196L10.5869 15.0129C10.2002 14.6262 10.2002 13.9862 10.5869 13.5996C10.9735 13.2129 11.6135 13.2129 12.0002 13.5996L16.0002 17.5996L20.0002 13.5996C20.3869 13.2129 21.0269 13.2129 21.4135 13.5996C21.8002 13.9862 21.8002 14.6262 21.4135 15.0129L16.7069 19.7196C16.5069 19.9196 16.2535 20.0129 16.0002 20.0129Z" fill="white"/>
</svg>
