<?xml version="1.0" encoding="UTF-8"?>
<svg id="Capa_2" data-name="Capa 2" xmlns="http://www.w3.org/2000/svg" viewBox="0 0 300 300">
  <defs>
    <style>
      .cls-1 {
        fill: #0c214f;
      }

      .cls-2 {
        fill: none;
        stroke: #0c214f;
        stroke-width: 3px;
      }
    </style>
  </defs>
  <g id="Capa_1-2" data-name="Capa 1">
    <circle class="cls-2" cx="150" cy="150" r="148.5"/>
    <path class="cls-1" d="M150.88,43.18c5.58,0,10.23,3.24,22.92,8.61,3.26,1.49,10.5,7.38,13.39,8.97,6.12,4.18,11.61,9.21,16.3,14.95,10.19,12.05,8.13,26.03,3.9,42.76-3.08,12.17-1.04,20.7,1.49,38.17,4.83,21.42.61,65.33-32.05,87.3-12.93,8.7-17.07,10.39-27.37,15.61-13.44-6.28-15.38-6.69-29.16-15.4-34.81-21.97-39.24-66.22-34.09-87.65,2.02-8.42,2.07-14.65.81-19.96-5.01-20.81-12.85-30.6-6.64-42.13,2.81-5.39,5.14-11.03,6.95-16.83l5.48-18.04c12.78-7.44,30.33-15.13,45.1-15.13h1.89c1.74,0,5.32-.33,5.32-.33,1.86-.59,3.8-.91,5.76-.95M150.88,40c-2.15.03-4.28.36-6.34.99-1.12.1-3.55.29-4.74.29h-1.89c-17.3,0-36.71,9.74-46.73,15.61l-1.12.62-.36,1.19-5.39,17.98c-1.75,5.6-3.99,11.04-6.69,16.24-4.9,9.16-2.13,17.52,1.45,28.09,1.58,4.66,3.35,9.94,4.89,16.22,1.23,5.16.97,11.04-.83,18.48-2.42,10.03-3.15,27.27,2.11,45.24,4.04,13.84,13.14,33.04,33.37,45.81,7.51,4.97,15.43,9.28,23.68,12.88l5.82,2.7,1.38.65,1.37-.69,4.03-2.03c8.24-3.95,16.16-8.56,23.67-13.78,19.09-12.8,27.56-31.87,31.36-45.62,4.17-15.11,4.93-31.86,2.02-44.86-.32-2.23-.65-4.38-.95-6.38-2-13.21-3.1-20.49-.59-30.45,4.13-16.3,6.87-32.06-4.54-45.56-4.86-5.92-10.55-11.11-16.88-15.43l-.15-.11-.17-.09c-1.12-.59-3.12-2.07-5.11-3.52-2.67-2.08-5.51-3.94-8.48-5.57-3.77-1.59-6.77-2.98-9.42-4.2-6.38-2.92-10.18-4.67-14.81-4.67v-.03Z"/>
    <path class="cls-1" d="M193.03,163.72c9.42-16.61-.3-21.33-4.86-22.72l.22,5.61s-2.67-2.25-9.1-3.62c-2.14,1.17-4.56,1.73-7,1.63-3.87,0-7.12-1.12-8.06-2.67-1.65.08-3.35.21-5.23.42l4.64,28.6c6.55,8.98,23.14,1.34,29.39-7.25Z"/>
    <path class="cls-1" d="M168.4,129.24s10.07-4,15.75-2.11c2.02.57,3.82,1.74,5.16,3.37,0,0,4.97.51,7.76-6.57,2.8-7.08,6.22-57.3-18.64-42.8-6.52,3.54-15.2,3.44-15.2,3.44-6.97-.31-8.16-2.34-14.54-6.11-7.49-4.57-16.35-6.35-25.02-5.02-17.69,2.53-22.76,20.43-22.76,20.43.42,8.01-.15,17.72-.15,17.72,0,0-3.21,9.79-8.07,16.54-4.67,6.45-3.87,48.71,7.29,66.29,7.34,11.57,17.83,24.16,16.46,10.93-2.07-20.23,18.69-22,18.69-22-9.49-8.99-.89-7.54,1.63-6.6,1.51.56,4.75,2.51,8.56,1.57,1.08-.24,2.07-.78,2.87-1.56.79-.78,1.35-1.77,1.61-2.85,0,0-1.12-37.25-.35-46.07,3.29,3.33,14.82,3.06,18.96,1.39ZM135.69,149.88s-4.06-6.21-10.33-8.99c-1.21,1-3.79,1.55-6.71,1.32-2.92-.24-5.47-1.21-6.48-2.42-8.95.75-10.06,1.6-10.06,1.6l5.3-7.37-6.89-.15s2.4-5.75,7.45-7c5.04-1.25,13.42,2.92,13.42,2.92,3.48,1.72,12.3,2.66,15.43,0l-1.13,20.09Z"/>
    <path class="cls-1" d="M124,56c7.38-4.54,14.05-9.35,23-12,0,0-4.58.43-5.94.32-5.54,2.25-14.02,6.59-17.06,11.68Z"/>
    <path class="cls-1" d="M175.92,51.25c-4.1-.19-8.17.64-11.87,2.43-6.69,3.36-19.21,12.66-30.05,12.02,0,0,12.86,2.08,23.7-4.64,5.58-3.44,11.38-8.08,21.77-6.63l9.52,5.53c-2.88-1.6-10.12-7.51-13.38-8.95.13.01.2.15.3.25Z"/>
  </g>
</svg>